<?xml version="1.0" encoding="UTF-8" standalone="no"?>
<svg width="34px" height="34px" viewBox="0 0 34 34" version="1.1" xmlns="http://www.w3.org/2000/svg" xmlns:xlink="http://www.w3.org/1999/xlink">
    <!-- Generator: Sketch 42 (36781) - http://www.bohemiancoding.com/sketch -->
    <title>calendar (1)</title>
    <desc>Created with Sketch.</desc>
    <defs></defs>
    <g id="Page-1" stroke="none" stroke-width="1" fill="none" fill-rule="evenodd">
        <g id="07_1" transform="translate(-583.000000, -837.000000)" stroke-width="0.4" stroke="#FFFFFF" fill="#000000">
            <g id="Group-7" transform="translate(0.000000, 764.000000)">
                <g id="Group-2" transform="translate(20.000000, 69.000000)">
                    <g id="calendar-(1)" transform="translate(564.000000, 5.000000)">
                        <g id="Capa_1">
                            <g id="calendar">
                                <path d="M22,23.3333333 L19.3333333,23.3333333 L19.3333333,26 L22,26 L22,23.3333333 Z M17.3333333,14 L14.6666667,14 L14.6666667,16.6666667 L17.3333333,16.6666667 L17.3333333,14 Z M22,18.6666667 L19.3333333,18.6666667 L19.3333333,21.3333333 L22,21.3333333 L22,18.6666667 Z M22,14 L19.3333333,14 L19.3333333,16.6666667 L22,16.6666667 L22,14 Z M26.6666667,14 L24,14 L24,16.6666667 L26.6666667,16.6666667 L26.6666667,14 Z M26.6666667,18.6666667 L24,18.6666667 L24,21.3333333 L26.6666667,21.3333333 L26.6666667,18.6666667 Z M17.3333333,18.6666667 L14.6666667,18.6666667 L14.6666667,21.3333333 L17.3333333,21.3333333 L17.3333333,18.6666667 Z M12.6666667,14 L10,14 L10,16.6666667 L12.6666667,16.6666667 L12.6666667,14 Z M8,18.6666667 L5.33333333,18.6666667 L5.33333333,21.3333333 L8,21.3333333 L8,18.6666667 Z M12.6666667,23.3333333 L10,23.3333333 L10,26 L12.6666667,26 L12.6666667,23.3333333 Z M8,23.3333333 L5.33333333,23.3333333 L5.33333333,26 L8,26 L8,23.3333333 Z M12.6666667,18.6666667 L10,18.6666667 L10,21.3333333 L12.6666667,21.3333333 L12.6666667,18.6666667 Z M17.3333333,23.3333333 L14.6666667,23.3333333 L14.6666667,26 L17.3333333,26 L17.3333333,23.3333333 Z M26,2.66666667 L26,0 L24.6666667,0 L24.6666667,2.66666667 L7.33333333,2.66666667 L7.33333333,0 L6,0 L6,2.66666667 L0,2.66666667 L0,32 L32,32 L32,2.66666667 L26,2.66666667 Z M30.6666667,30.6666667 L1.33333333,30.6666667 L1.33333333,10.6666667 L30.6666667,10.6666667 L30.6666667,30.6666667 Z M30.6666667,9.33333333 L1.33333333,9.33333333 L1.33333333,4 L6,4 L6,5.33333333 L7.33333333,5.33333333 L7.33333333,4 L24.6666667,4 L24.6666667,5.33333333 L26,5.33333333 L26,4 L30.6666667,4 L30.6666667,9.33333333 Z" id="Shape"></path>
                            </g>
                        </g>
                    </g>
                </g>
            </g>
        </g>
    </g>
</svg>