<?xml version="1.0" encoding="UTF-8" standalone="no"?>
<svg width="48px" height="35px" viewBox="0 0 48 35" version="1.1" xmlns="http://www.w3.org/2000/svg" xmlns:xlink="http://www.w3.org/1999/xlink">
    <!-- Generator: Sketch 42 (36781) - http://www.bohemiancoding.com/sketch -->
    <title>Page 1</title>
    <desc>Created with Sketch.</desc>
    <defs></defs>
    <g id="Page-1" stroke="none" stroke-width="1" fill="none" fill-rule="evenodd">
        <g id="07_1" transform="translate(-26.000000, -840.000000)">
            <g id="Group-7" transform="translate(0.000000, 764.000000)">
                <g id="Group-2" transform="translate(20.000000, 69.000000)">
                    <g id="Page-1" transform="translate(30.500000, 22.000000) rotate(-19.000000) translate(-30.500000, -22.000000) translate(7.000000, 7.000000)">
                        <path d="M36.9980795,7.76148214 C37.0974205,7.36933929 37.1684545,6.97023214 37.0279886,6.63594643 C36.6792273,5.806125 35.4187727,5.31005357 34.6026818,4.92058929 C33.6744318,4.47755357 32.7440455,4.03826786 31.8120568,3.60219643 C29.6281591,2.58058929 27.4394545,1.55255357 25.2048182,0.645589286 C24.8143977,0.487017857 23.7285909,-0.147803571 23.282625,0.0316607143 C23.2804886,0.0327321429 0.807011364,9.057375 0.807011364,9.057375 C0.150613636,9.32148214 -0.170909091,10.0757679 0.0918636364,10.7341607 L3.70498864,19.786125 L3.76480682,19.936125 L7.37793182,28.9880893 C7.64070455,29.6464821 8.39323864,29.9695179 9.04910227,29.7059464 L31.5247159,20.6802321 C31.8702727,20.5409464 32.1335795,19.6821964 32.2735114,19.384875 C32.7269545,18.424875 33.1366023,17.4434464 33.5435795,16.4625536 C34.4707614,14.228625 35.3466705,12.1104107 36.2183068,9.85398214 C36.4330114,9.297375 36.8228977,8.45255357 36.9980795,7.76148214 Z" id="Stroke-1" stroke="#010202"></path>
                        <path d="M19.1999273,5.99217857 L3.48697273,12.3023571" id="Stroke-3" stroke="#010202"></path>
                        <path d="M24.4557557,19.1592321 L8.74280114,25.4694107" id="Stroke-5" stroke="#010202"></path>
                        <path d="M18.3610841,13.9872321 L6.12185682,18.9024107" id="Stroke-7" stroke="#010202"></path>
                        <path d="M29.8705295,11.3326607 C28.9369386,11.7076607 27.8767682,11.2523036 27.5029045,10.315875 C27.1290409,9.37944643 27.5830182,8.31605357 28.5166091,7.94105357 C29.4502,7.56605357 30.5103705,8.02141071 30.8842341,8.95783929 C31.2580977,9.89426786 30.8041205,10.9576607 29.8705295,11.3326607 Z" id="Stroke-9" stroke="#010202"></path>
                        <path d="M30.7341011,10.632 C33.6993739,13.1273571 40.4593625,20.6637857 44.8698852,18.6045 C46.7562943,17.7237857 47.2610102,15.0623571 46.1501011,13.4150357 C44.3950784,10.8130714 39.5839875,9.92217857 36.849442,9.13789286" id="Stroke-11" stroke="#221F20"></path>
                    </g>
                </g>
            </g>
        </g>
    </g>
</svg>