<svg xmlns="http://www.w3.org/2000/svg" xmlns:xlink="http://www.w3.org/1999/xlink" viewBox="0 0 51 42"><defs><path id="A" d="M0 0h50.4v42H0z"/></defs><g fill-rule="evenodd"><mask id="B" fill="#fff"><use xlink:href="#A"/></mask><path d="M37.458 36L32.4 34.834l-.446-.053H16.916c-.8 0-1.54-.33-2.072-.907l-11.37-12.35c-.24-.26-.23-.66.017-.908l.3-.306c.223-.22.602-.324 1.032.096l9.998 8.643c.23.2.505.344.805.423l.022.08a4.71 4.71 0 0 0 .175.555l.167.373c.082.173.17.34.27.495l.235.344a5.2 5.2 0 0 0 .378.453l.262.27a6.08 6.08 0 0 0 .492.4l.27.192c.167.108.344.196.602.324l.265.125c.204.083.42.142.7.218l.245.064c.337.07.68.105 1.02.105h7.25c.365 0 .66-.293.66-.656v-2.625c0-.362-.294-.656-.66-.656h-7.25a1.25 1.25 0 0 1-.265-.026 1.32 1.32 0 0 1-.95-.799c-.005-.03-.015-.058-.024-.087-.025-.07-.042-.14-.055-.213l-.004-.02c-.01-.056-.025-.09-.024-.083l-.001-.001.032-.235a1.33 1.33 0 0 1 .418-.819 1.32 1.32 0 0 1 .431-.256 1.25 1.25 0 0 1 .443-.085h5.932l.5-.06 5.026-1.253h4.47l4.58 2.813L37.46 36zM19.035 11.768c-.254-.196-.397-.462-.397-.742 0-1.368 1.14-2.523 2.72-2.957V5.25h2.72v2.82c1.578.434 2.72 1.59 2.72 2.957h-2.72c0-.58-.612-1.05-1.362-1.05-.58 0-1.08.285-1.273.68l4.955 3.826c.257.197.4.463.4.743 0 1.366-1.142 2.52-2.72 2.957V21h-2.72v-2.817c-1.58-.436-2.72-1.59-2.72-2.957h2.72c0 .58.6 1.05 1.36 1.05.584 0 1.08-.285 1.275-.682l-4.956-3.826zm31.293 17.994c-.115-.332-.36-.606-.678-.756l-5.2-2.483-6.54-4.014c-.208-.13-.447-.197-.693-.197h-.125a15.62 15.62 0 0 0 1.443-6.562C38.534 7.065 31.44 0 22.716 0S6.898 7.065 6.898 15.75c0 .764.076 1.517.185 2.26L7.06 18c-1.493-1.486-4.1-1.484-5.593 0l-.306.305c-1.5 1.496-1.553 3.888-.12 5.443l12.794 13.898a1.32 1.32 0 0 0 .971.427h16.986l6.313 1.467 5.153 2.352c.178.08.365.118.548.118a1.32 1.32 0 0 0 1.181-.724l5.273-10.5a1.31 1.31 0 0 0 .067-1.013z" fill="#fe9900" mask="url(#B)"/></g></svg>