<?xml version="1.0" encoding="UTF-8" standalone="no"?>
<svg width="47px" height="42px" viewBox="0 0 47 42" version="1.1" xmlns="http://www.w3.org/2000/svg" xmlns:xlink="http://www.w3.org/1999/xlink">
    <!-- Generator: Sketch 42 (36781) - http://www.bohemiancoding.com/sketch -->
    <title>Group 20</title>
    <desc>Created with Sketch.</desc>
    <defs>
        <path d="M3.38922735,0 C3.09553347,0 2.85470449,0.240633947 2.85470449,0.53408998 C2.85470449,0.792331288 2.74310082,1.02709611 2.56101061,1.19143149 C2.52576735,1.21490798 2.49052408,1.23838446 2.46115469,1.27359918 C2.32018163,1.37337423 2.14396531,1.42619632 1.9618751,1.42619632 C1.46846939,1.42619632 1.06904571,1.02709611 1.06904571,0.53408998 C1.06904571,0.240633947 0.828216735,0 0.534522857,0 C0.24082898,0 0,0.240633947 0,0.53408998 C0,1.00361963 0.164468571,1.43793456 0.446414694,1.77247444 L0.0176216327,11.7617178 C0.0117477551,11.920184 0.0763604082,12.0727812 0.193837959,12.1784254 L1.56245143,13.4109407 C1.66230735,13.5048466 1.79153265,13.5459305 1.92075796,13.5459305 C2.04998327,13.5459305 2.17920857,13.4989775 2.27906449,13.4109407 L3.67117347,12.1549489 C3.78865102,12.0493047 3.85326367,11.8967076 3.8473898,11.7382413 L3.4009751,1.86051125 C3.72991224,1.50836401 3.92962408,1.03883436 3.92962408,0.522351738 C3.9237502,0.234764826 3.68292122,0 3.38922735,0 Z M1.91488408,12.3016769 L1.08666735,11.5562986 L1.48021714,2.42394683 C1.63293796,2.46503067 1.79153265,2.48263804 1.95600122,2.48263804 C2.09110041,2.48263804 2.22032571,2.4708998 2.34367714,2.44155419 L2.75484857,11.5328221 L1.91488408,12.3016769 Z" id="path-1"></path>
    </defs>
    <g id="Page-1" stroke="none" stroke-width="1" fill="none" fill-rule="evenodd">
        <g id="07_1" transform="translate(-19.000000, -887.000000)">
            <g id="Group-7" transform="translate(0.000000, 764.000000)">
                <g id="Group-2" transform="translate(20.000000, 69.000000)">
                    <g id="Group-20" transform="translate(0.000000, 55.000000)">
                        <g id="user-(3)" stroke-width="1.3" stroke="#FFFFFF" fill="#000000">
                            <g id="Layer_1">
                                <g id="User">
                                    <path d="M37.171875,28.75375 C35.99125,27.5734375 34.015625,26.543125 30.90125,24.9853125 C29.33125,24.2003125 26.718125,22.894375 26.0846875,22.29625 C28.7375,19.035625 30.2771875,15.3528125 30.2771875,12.1290625 C30.2771875,9.9415625 30.2771875,7.219375 29.0528125,4.7915625 C27.9490625,2.605 25.4825,0 20.000625,0 C14.5175,0 12.0509375,2.605 10.9484375,4.79125 C9.7225,7.219375 9.7225,9.94125 9.7225,12.12875 C9.7225,15.35375 11.2609375,19.035625 13.9153125,22.2959375 C13.2803125,22.8953125 10.6675,24.2015625 9.0975,24.985 C5.9840625,26.5425 4.0084375,27.5728125 2.826875,28.7534375 C0.2115625,31.370625 0.01375,35.7615625 0.0003125,36.6159375 C-0.013125,37.5071875 0.33125,38.36875 0.95875,39.0059375 C1.58375,39.640625 2.4409375,39.9996875 3.3321875,39.9996875 L36.66625,39.9996875 C37.56,39.9996875 38.415,39.6409375 39.04125,39.0059375 C39.6675,38.36875 40.013125,37.506875 39.9996875,36.6146875 C39.98625,35.761875 39.786875,31.3709375 37.171875,28.75375 Z M37.2609375,37.2509375 C37.1021875,37.4109375 36.8909375,37.5 36.66625,37.5 L3.3321875,37.5 C3.11125,37.5 2.8953125,37.4096875 2.74,37.2509375 C2.585,37.0934375 2.4971875,36.87625 2.499375,36.6540625 C2.5065625,36.2353125 2.6215625,32.49625 4.5946875,30.5225 C5.505625,29.611875 7.4125,28.624375 10.2159375,27.2215625 C13.2084375,25.72625 14.8678125,24.835 15.6321875,24.1125 L17.319375,22.5171875 L15.854375,20.7178125 C13.546875,17.8834375 12.2221875,14.7521875 12.2221875,12.1290625 C12.2221875,10.10625 12.2221875,7.815 13.179375,5.918125 C14.325625,3.65 16.6184375,2.5 20.000625,2.5 C23.38,2.5 25.6753125,3.65 26.820625,5.916875 C27.7778125,7.815 27.7778125,10.10625 27.7778125,12.1290625 C27.7778125,14.75125 26.454375,17.8821875 24.1440625,20.7178125 L22.6790625,22.5184375 L24.3665625,24.1128125 C25.130625,24.834375 26.78875,25.7253125 29.7825,27.221875 C32.5859375,28.623125 34.4928125,29.6109375 35.40375,30.5228125 C37.009375,32.128125 37.476875,35.1321875 37.49875,36.654375 C37.5028125,36.87625 37.4159375,37.0934375 37.2609375,37.2509375 Z" id="Shape"></path>
                                </g>
                            </g>
                        </g>
                        <g id="user-(2)-copy" transform="translate(18.000000, 23.000000)">
                            <g id="Layer_1">
                                <g id="Group">
                                    <g id="Shape">
                                        <use fill="#000000" fill-rule="evenodd" xlink:href="#path-1"></use>
                                        <use xlink:href="#path-1"></use>
                                    </g>
                                </g>
                            </g>
                            <g id="coin-of-dollar" transform="translate(10.000000, 0.000000)">
                                <g id="Capa_1">
                                    <path d="M8.35714286,0 C3.74194336,0 0,3.721198 0,8.31081081 C0,12.9004236 3.74194336,16.6216216 8.35714286,16.6216216 C12.9723424,16.6216216 16.7142857,12.9004236 16.7142857,8.31081081 C16.7142857,3.721198 12.9723424,0 8.35714286,0 Z" id="Path" stroke="#FFFFFF" stroke-width="2" fill="#000000"></path>
                                    <path d="M8.35714286,0 C3.74194336,0 0,3.721198 0,8.31081081 C0,12.9004236 3.74194336,16.6216216 8.35714286,16.6216216 C12.9723424,16.6216216 16.7142857,12.9004236 16.7142857,8.31081081 C16.7142857,3.721198 12.9723424,0 8.35714286,0 Z M8.35714286,15.2711149 C4.49826012,15.2711149 1.35803571,12.1482999 1.35803571,8.31081081 C1.35803571,4.47332175 4.49826012,1.35050676 8.35714286,1.35050676 C12.2160256,1.35050676 15.35625,4.47332175 15.35625,8.31081081 C15.35625,12.1482999 12.2160256,15.2711149 8.35714286,15.2711149 Z" id="Shape" stroke="#FFFFFF" stroke-width="0.3" fill="#000000"></path>
                                    <path d="M8.35714286,15.2711149 C4.49826012,15.2711149 1.35803571,12.1482999 1.35803571,8.31081081 C1.35803571,4.47332175 4.49826012,1.35050676 8.35714286,1.35050676 C12.2160256,1.35050676 15.35625,4.47332175 15.35625,8.31081081 C15.35625,12.1482999 12.2160256,15.2711149 8.35714286,15.2711149 Z" id="Path" fill="#FFFFFF"></path>
                                    <path d="M11.8717026,5.12831161 C11.7006736,4.95722946 11.4241357,4.95722946 11.2531067,5.12831161 L11.0168652,5.3645557 C10.6708084,5.13533536 10.2578472,5.00014099 9.81248478,5.00014099 C8.60636122,5.00014099 7.62504646,5.98141526 7.62504646,7.18760334 C7.62504646,7.83947911 7.89409927,8.35482755 8.12859766,8.73149537 C8.34735687,9.0827854 8.50003204,9.58326604 8.50003204,9.81253765 C8.50003204,10.5361377 7.91117141,11.1250048 7.1875793,11.1250048 C6.4639872,11.1250048 5.87512657,10.5361377 5.87512657,9.81253765 C5.87512657,9.54696812 5.95428387,9.29103703 6.10393425,9.07232668 C6.24040882,8.87325207 6.18924367,8.60071007 5.99017125,8.46423399 C5.79068869,8.32816806 5.51855982,8.37892362 5.38208524,8.57799823 C5.13225781,8.94287435 5.00014099,9.36983633 5.00014099,9.81258892 C5.00014099,10.2579562 5.13533387,10.6709219 5.36455169,11.0169826 L5.1283102,11.2532267 C4.95722993,11.4242576 4.95722993,11.7007985 5.1283102,11.8718294 C5.21361963,11.9571397 5.32563952,12 5.43760814,12 C5.54962803,12 5.66159666,11.9571397 5.74690609,11.8718294 L5.98314758,11.6355853 C6.32920445,11.8648056 6.74216566,12 7.18752804,12 C8.39365159,12 9.37496635,11.0187257 9.37496635,9.81253765 C9.37496635,9.38644724 9.16323081,8.73718614 8.87141515,8.26864562 C8.61112911,7.85086067 8.49998077,7.52756309 8.49998077,7.18760334 C8.49998077,6.46400328 9.0888414,5.87513618 9.81243351,5.87513618 C10.1633095,5.87513618 10.4804514,6.01514977 10.7158214,6.24042245 C10.7232552,6.24831776 10.7258699,6.25877648 10.7333037,6.26667179 C10.7411989,6.27410569 10.7516575,6.27672037 10.7595527,6.28415427 C10.9848742,6.51952679 11.124835,6.83672345 11.124835,7.18755207 C11.124835,7.53838069 10.987899,7.86870202 10.7394045,8.11719922 C10.5683243,8.28781995 10.5683243,8.56477102 10.7389431,8.7358019 C10.9091006,8.90688404 11.18651,8.90642263 11.357539,8.73626331 C11.771423,8.32237475 11.9997693,7.77247151 11.9997693,7.18755207 C11.9997693,6.7421848 11.8645764,6.32921906 11.6353586,5.98315838 L11.8716001,5.74691429 C12.0427829,5.57588342 12.0427829,5.29934248 11.8717026,5.12831161 Z" id="Shape" stroke="#000000" stroke-width="0.15" fill="#000000" transform="translate(8.500000, 8.500000) rotate(-45.000000) translate(-8.500000, -8.500000) "></path>
                                </g>
                            </g>
                        </g>
                    </g>
                </g>
            </g>
        </g>
    </g>
</svg>