<?xml version="1.0" encoding="UTF-8" standalone="no"?>
<svg width="80px" height="80px" viewBox="0 0 80 80" version="1.1" xmlns="http://www.w3.org/2000/svg" xmlns:xlink="http://www.w3.org/1999/xlink">
    <!-- Generator: Sketch 42 (36781) - http://www.bohemiancoding.com/sketch -->
    <title>security_guard</title>
    <desc>Created with Sketch.</desc>
    <defs></defs>
    <g id="Page-1" stroke="none" stroke-width="1" fill="none" fill-rule="evenodd">
        <g id="security_guard">
            <g transform="translate(13.000000, 9.000000)">
                <g id="Group-4" transform="translate(0.000000, 38.828229)">
                    <path d="M53.8813862,22.3247412 C53.4922138,20.2678 51.1264552,8.22338824 50.7512483,7.06544706 C49.5688345,3.34544706 39.4540759,0.348476471 26.9884552,0.348476471 C14.5228345,0.348476471 4.52073103,3.34544706 3.33738621,7.06544706 C2.97614483,8.22338824 0.8478,20.2541235 0.457696552,22.3247412" id="Fill-1" fill="#FEFEFE"></path>
                    <path d="M53.8813862,22.3247412 C53.4922138,20.2678 51.1264552,8.22338824 50.7512483,7.06544706 C49.5688345,3.34544706 39.4540759,0.348476471 26.9884552,0.348476471 C14.5228345,0.348476471 4.52073103,3.34544706 3.33738621,7.06544706 C2.97614483,8.22338824 0.8478,20.2541235 0.457696552,22.3247412" id="Stroke-3" stroke="#020302" stroke-width="1.4"></path>
                </g>
                <path d="M16.8048931,42.2608716 C16.4985828,42.3082833 16.1932034,42.3711951 15.9008586,42.4331951 C15.5386862,42.4961069 15.1774448,42.5745186 14.8152724,42.6538422 C14.5787897,42.7003422 14.3423069,42.7632539 14.1197897,42.8106657 C13.7576172,42.8890775 13.3963759,42.9829892 13.048169,43.0778127 C12.8116862,43.1407245 12.589169,43.2036363 12.3666517,43.2656363 C12.0054103,43.3759598 11.6432379,43.4698716 11.3099276,43.5801951 C11.0864793,43.6586069 10.8639621,43.7215186 10.6414448,43.7999304 C10.2802034,43.9257539 9.93199655,44.0515775 9.58472069,44.192901 C9.27841034,44.3187245 8.98606552,44.4281363 8.70768621,44.5539598 L9.0558931,46.4695775 L17.2359621,44.5849598 L16.8048931,42.2608716 Z" id="Fill-5" fill="#020302"></path>
                <path d="M44.3375379,44.0184804 C44.0032966,43.8926569 43.6420552,43.7668333 43.2798828,43.6419216 C43.0573655,43.562598 42.8348483,43.500598 42.612331,43.4212745 C42.2650552,43.3118627 41.9168483,43.2015392 41.5546759,43.1076275 C41.3321586,43.0447157 41.0956759,42.9818039 40.8731586,42.9188922 C40.5258828,42.8249804 40.1637103,42.7465686 39.802469,42.6517451 C39.5659862,42.6052451 39.3425379,42.5423333 39.1060552,42.4949216 C38.7587793,42.4165098 38.3966069,42.353598 38.0214,42.2751863 C37.7150897,42.2122745 37.4227448,42.1648627 37.1034,42.1183627 L36.6853655,44.442451 L44.8663655,46.3270686 L45.2276069,44.3485392 C44.9361931,44.2382157 44.6438483,44.1288039 44.3375379,44.0184804" id="Fill-7" fill="#020302"></path>
                <path d="M32.4563276,32.1736235 L21.6321207,32.1736235 C23.315431,37.1600647 21.7717759,39.4358294 21.7717759,39.4358294 L24.4801552,43.3318 L29.928569,43.3318 L32.3176034,39.4358294 C32.3176034,39.4358294 30.7730172,37.1600647 32.4563276,32.1736235" id="Fill-9" fill="#FEFEFE"></path>
                <path d="M32.4563276,32.1736235 L21.6321207,32.1736235 C23.315431,37.1600647 21.7717759,39.4358294 21.7717759,39.4358294 L24.4801552,43.3318 L29.928569,43.3318 L32.3176034,39.4358294 C32.3176034,39.4358294 30.7730172,37.1600647 32.4563276,32.1736235 Z" id="Stroke-11" stroke="#020302" stroke-width="1.4"></path>
                <path d="M39.329131,17.6090941 C39.329131,5.02035882 33.8341655,2.13188824 27.044131,2.13188824 C20.2689931,2.13188824 14.7600621,5.02035882 14.7600621,17.6090941 C14.7600621,21.8734176 15.6222,25.2113882 16.9163379,27.7862118 C19.754131,33.4546529 24.6653379,35.4295353 27.044131,35.4295353 C29.4238552,35.4295353 34.334131,33.4546529 37.1728552,27.7862118 C38.4669931,25.2113882 39.329131,21.8734176 39.329131,17.6090941" id="Fill-13" fill="#FEFEFE"></path>
                <path d="M39.329131,17.6090941 C39.329131,5.02035882 33.8341655,2.13188824 27.044131,2.13188824 C20.2689931,2.13188824 14.7600621,5.02035882 14.7600621,17.6090941 C14.7600621,21.8734176 15.6222,25.2113882 16.9163379,27.7862118 C19.754131,33.4546529 24.6653379,35.4295353 27.044131,35.4295353 C29.4238552,35.4295353 34.334131,33.4546529 37.1728552,27.7862118 C38.4669931,25.2113882 39.329131,21.8734176 39.329131,17.6090941 Z" id="Stroke-15" stroke="#020302" stroke-width="1.4"></path>
                <path d="M15.9643552,26.2606471 C14.7959069,26.4512059 13.960769,26.2743235 13.3071828,22.4868529 C12.6535966,18.6993824 13.5436655,18.1951765 14.7121138,18.0046176 L15.9643552,26.2606471 Z" id="Fill-17" fill="#FEFEFE"></path>
                <path d="M15.9643552,26.2606471 C14.7959069,26.4512059 13.960769,26.2743235 13.3071828,22.4868529 C12.6535966,18.6993824 13.5436655,18.1951765 14.7121138,18.0046176 L15.9643552,26.2606471 Z" id="Stroke-19" stroke="#020302" stroke-width="1.4"></path>
                <path d="M38.0928103,26.2606471 C39.2612586,26.4512059 40.082431,26.2743235 40.7499828,22.4868529 C41.4175345,18.6993824 40.5135,18.1951765 39.3450517,18.0046176 L38.0928103,26.2606471 Z" id="Fill-21" fill="#FEFEFE"></path>
                <path d="M38.0928103,26.2606471 C39.2612586,26.4512059 40.082431,26.2743235 40.7499828,22.4868529 C41.4175345,18.6993824 40.5135,18.1951765 39.3450517,18.0046176 L38.0928103,26.2606471 Z" id="Stroke-23" stroke="#020302" stroke-width="1.4"></path>
                <polygon id="Fill-25" fill="#FEFEFE" points="35.0718828 39.7624235 32.5813655 37.6507765 27.0445034 43.3183059 32.136331 44.7078353"></polygon>
                <polygon id="Stroke-27" stroke="#020302" stroke-width="1.4" points="35.0718828 39.7624235 32.5813655 37.6507765 27.0445034 43.3183059 32.136331 44.7078353"></polygon>
                <polygon id="Fill-29" fill="#FEFEFE" points="19.017031 39.7624235 21.5075483 37.6507765 27.0444103 43.3183059 21.9525828 44.7078353"></polygon>
                <polygon id="Stroke-31" stroke="#020302" stroke-width="1.4" points="19.017031 39.7624235 21.5075483 37.6507765 27.0444103 43.3183059 21.9525828 44.7078353"></polygon>
                <path id="Fill-33" fill="#FEFEFE"></path>
                <path id="Stroke-35" stroke="#020302" stroke-width="1.4"></path>
                <path id="Fill-37" fill="#FEFEFE"></path>
                <path id="Stroke-39" stroke="#020302" stroke-width="1.4"></path>
                <path id="Fill-41" fill="#FEFEFE"></path>
                <path id="Stroke-43" stroke="#020302" stroke-width="1.4"></path>
                <path d="M27.0375207,0.455882353 C18.5790724,0.455882353 11.2397276,7.08805882 11.2955897,7.15552941 C11.7685552,7.75547059 15.1072448,11.3387059 15.1072448,11.3387059 L15.274831,13.4640294 C15.274831,13.4640294 15.2925207,15.0286176 17.2085897,15.4398235 C19.0836931,15.8419118 21.6049345,16.5640294 27.0310034,16.5640294 C32.4561414,16.5640294 34.7949,16.0315588 36.8524862,15.4398235 C38.7750724,14.8863824 38.8281414,13.4093235 38.8281414,13.4093235 L38.953831,11.3387059 C39.9137276,10.4123529 42.2366586,7.82385294 42.7375552,7.19655882 C42.8213483,7.11541176 35.5099345,0.455882353 27.0375207,0.455882353" id="Fill-45" fill="#FEFEFE"></path>
                <path d="M27.0375207,1.48921569 C18.5790724,1.48921569 11.2955897,8.18886275 11.2955897,8.18886275 C11.7685552,8.78880392 15.1072448,12.3720392 15.1072448,12.3720392 L15.274831,14.4973627 C15.274831,14.4973627 15.2925207,16.061951 17.2085897,16.4731569 C19.0836931,16.8752451 21.6049345,17.5973627 27.0310034,17.5973627 C32.4561414,17.5973627 34.7949,17.0648922 36.8524862,16.4731569 C38.7750724,15.9197157 38.8281414,14.4426569 38.8281414,14.4426569 L38.953831,12.3720392 C39.9137276,11.4456863 42.2366586,8.85718627 42.7375552,8.22989216 C42.8213483,8.1487451 35.5099345,1.48921569 27.0375207,1.48921569 Z" id="v" stroke="#221F20" stroke-width="1.4"></path>
                <g id="Group-52" transform="translate(14.896552, 9.773327)" stroke-width="1.4">
                    <path d="M24.0986172,2.58503529 L24.0986172,2.58503529 C22.0810655,1.75350588 17.6707552,0.269152941 12.1478586,0.269152941 C6.61099655,0.269152941 2.21465172,1.76718235 0.183134483,2.59871176" id="Fill-49" stroke="#000000"></path>
                    <path d="M15.5146655,51.3931373 C15.3340448,47.9056373 14.9998034,43.082402 14.7772862,40.6297549 C14.5920103,38.5837549 13.7075276,36.9425784 13.1349414,36.0700196 L14.3322517,34.158049 L12.2011138,33.4906373 L9.94987241,34.158049 L11.1574241,36.0745784 C10.5848379,36.9489608 9.70314828,38.5883137 9.51880345,40.6297549 C9.29628621,43.082402 8.96204483,47.9056373 8.78142414,51.3931373 L15.5146655,51.3931373 Z" id="Stroke-55" stroke="#020302"></path>
                </g>
            </g>
        </g>
    </g>
</svg>