<?xml version="1.0" encoding="utf-8"?>
<!-- Generator: Adobe Illustrator 19.2.1, SVG Export Plug-In . SVG Version: 6.00 Build 0)  -->
<svg version="1.1" id="Layer_1" xmlns="http://www.w3.org/2000/svg" xmlns:xlink="http://www.w3.org/1999/xlink" x="0px" y="0px"
	 viewBox="0 0 42 42" style="enable-background:new 0 0 42 42;" xml:space="preserve">
<style type="text/css">
	.st0{fill:#E2E2E2;}
	.st1{fill:#CFCFCF;}
</style>
<g>
	<path class="st0" d="M21,40.5C10.2,40.5,1.5,31.8,1.5,21C1.5,10.2,10.2,1.5,21,1.5c10.8,0,19.5,8.7,19.5,19.5
		C40.5,31.8,31.8,40.5,21,40.5z"/>
	<path class="st1" d="M21,2c10.5,0,19,8.5,19,19s-8.5,19-19,19S2,31.5,2,21S10.5,2,21,2 M21,1C10,1,1,10,1,21c0,11,9,20,20,20
		s20-9,20-20C41,10,32,1,21,1L21,1z"/>
</g>
</svg>
